# xmcd
#
# Track frame offsets: 
#        150
#        13551
#        27414
#        42551
#        53834
#        67276
#        80492
#        92928
#        105229
#        123390
#        137179
#        156679
#        173637
#
# Disc length: 2473 seconds
#
# Revision: 0
# Processed by: cddbd v1.5.2PL0 Copyright (c) Steve Scherf et al.
# Submitted via: ExactAudioCopy v0.95b4
#
DISCID=b609a70d
DTITLE=Johnny Loughrey - Wine and Roses
DYEAR=2003
DGENRE=Country
TTITLE0=Just Along For The Ride
TTITLE1=Wine And Roses
TTITLE2=Spending The Winter Down Mexico Way
TTITLE3=I Will Stand By You
TTITLE4=Do I Ever Cross Your Mind
TTITLE5=For A Minute There
TTITLE6=He's Got You
TTITLE7=Texas
TTITLE8=Emigrants Eyes
TTITLE9=A Nickle Piece Of Candy
TTITLE10=Reeves Medley: I missed Me, Anna Marie, Adios Amigo
TTITLE11=Any Old Miracle
TTITLE12=Turn Me Around
EXTD=
EXTT0=
EXTT1=
EXTT2=
EXTT3=
EXTT4=
EXTT5=
EXTT6=
EXTT7=
EXTT8=
EXTT9=
EXTT10=
EXTT11=
EXTT12=
PLAYORDER=
